<svg xmlns="http://www.w3.org/2000/svg" viewBox="0 0 32 32"><defs fill="#000000"><style>.cls-1{fill:#ffffff;}</style></defs><g id="sofa"><path class="cls-1" d="M29,14.9H27v-2A3.87,3.87,0,0,0,23.15,9H18a6.76,6.76,0,0,0-.2-2.19,6.52,6.52,0,0,0-8-4.59A6.53,6.53,0,0,0,5,8.41a1,1,0,0,0,1,1,1,1,0,0,0,1-1,4.5,4.5,0,0,1,8.85-1.11,4.5,4.5,0,0,1-8.21,3.48,1,1,0,0,0-1.37-.35.85.85,0,0,0-.17.16,1,1,0,0,0-.69.51,3.57,3.57,0,0,0-.23.57A3.88,3.88,0,0,0,5,12.88v2H3a1,1,0,0,0-1,1V29a1,1,0,0,0,1,1H9a1,1,0,0,0,1-1V27h9a1,1,0,0,0,0-2H8V22.56a.62.62,0,0,1,.62-.62H23.38a.62.62,0,0,1,.62.62V25H23a1,1,0,0,0-1,1s0,.07,0,.1,0,.07,0,.11V29a1,1,0,0,0,1,1h6a1,1,0,0,0,1-1V15.9A1,1,0,0,0,29,14.9ZM11.51,15a6.86,6.86,0,0,0,1.68-.22,6.45,6.45,0,0,0,3.94-3,5.6,5.6,0,0,0,.36-.74h5.66A1.87,1.87,0,0,1,25,12.88V15a3.63,3.63,0,0,0-3,3.57v1.41H10V18.53A3.63,3.63,0,0,0,7,15V13.19A6.59,6.59,0,0,0,11.51,15ZM6,22.56V26a1,1,0,0,0,1,1H8v1H4V16.9H6.39A1.62,1.62,0,0,1,8,18.53V20A2.63,2.63,0,0,0,6,22.56ZM28,28H24V27h1a1,1,0,0,0,1-1V22.56A2.63,2.63,0,0,0,24,20V18.53a1.62,1.62,0,0,1,1.61-1.63H28Z" fill="#000000"/><path class="cls-1" d="M9,10.66a1,1,0,0,0,.76.34,1,1,0,0,0,.65-.25l3.43-3a1,1,0,1,0-1.31-1.5l-3.43,3A1,1,0,0,0,9,10.66Z" fill="#000000"/><path class="cls-1" d="M10.81,7a1,1,0,0,0-1-1h0a1,1,0,1,0,1,1Z" fill="#000000"/><path class="cls-1" d="M13.22,9a1,1,0,1,0,1,1,1,1,0,0,0-1-1Z" fill="#000000"/></g></svg>